<?xml version="1.0" encoding="UTF-8" standalone="no"?>
<!-- Created with Inkscape (http://www.inkscape.org/) -->
<svg
   xmlns:svg="http://www.w3.org/2000/svg"
   xmlns="http://www.w3.org/2000/svg"
   version="1.0"
   width="300"
   height="600"
   viewBox="0 0 21000 29700"
   id="svg2602">
  <defs
     id="defs2651" />
  <g
     style="visibility:visible"
     id="Domyślnie">
    <desc
       id="desc2605">Master slide</desc>
  </g>
  <g
     transform="matrix(2.6930302,0,0,2.6930302,-17454.295,-24707.236)"
     style="visibility:visible"
     id="page1">
    <desc
       id="desc2608">Slide</desc>
    <g
       id="g2610">
      <desc
         id="desc2612">Group</desc>
      <g
         id="g2614">
        <desc
           id="desc2616">Drawing</desc>
        <g
           id="g2618">
          <g
             style="fill:#000000;stroke:none"
             id="g2620">
            <path
               d="M 10605,8456 L 10604,8443 L 10603,8431 L 10602,8419 L 10600,8409 L 10597,8399 L 10593,8390 L 10589,8382 L 10584,8375 L 10578,8369 L 10572,8363 L 10565,8359 L 10557,8355 L 10549,8352 L 10540,8350 L 10530,8349 L 10520,8348 L 10511,8349 L 10501,8351 L 10492,8353 L 10483,8357 L 10473,8362 L 10464,8368 L 10455,8375 L 10445,8382 L 10436,8392 L 10427,8402 L 10408,8425 L 10390,8453 L 10371,8484 L 10350,8536 L 10332,8586 L 10317,8637 L 10304,8687 L 10294,8736 L 10287,8785 L 10283,8834 L 10282,8882 L 10283,8904 L 10285,8926 L 10288,8948 L 10293,8970 L 10299,8993 L 10307,9016 L 10326,9062 L 10351,9109 L 10382,9157 L 10418,9206 L 10459,9256 L 10489,9284 L 10520,9308 L 10553,9328 L 10569,9337 L 10586,9344 L 10603,9351 L 10620,9357 L 10638,9362 L 10656,9367 L 10674,9370 L 10693,9372 L 10731,9374 L 10750,9373 L 10769,9369 L 10788,9362 L 10806,9354 L 10823,9342 L 10839,9328 L 10855,9311 L 10870,9292 L 10885,9270 L 10899,9246 L 10912,9219 L 10925,9190 L 10949,9123 L 10970,9047 L 11012,8971 L 11051,8891 L 11087,8807 L 11121,8720 L 11152,8628 L 11180,8532 L 11205,8432 L 11228,8329 L 11102,8461 L 10980,8578 L 10862,8677 L 10805,8721 L 10749,8761 L 10595,8554 L 10605,8456 z M 10788,10630 L 11053,10221 L 11279,9889 L 11466,9635 L 11544,9537 L 11612,9458 L 11638,9430 L 11670,9401 L 11708,9370 L 11751,9337 L 11855,9265 L 11982,9187 L 12022,9185 L 12059,9180 L 12095,9172 L 12128,9160 L 12159,9145 L 12188,9127 L 12215,9105 L 12239,9080 L 12261,9052 L 12281,9020 L 12298,8985 L 12314,8947 L 12327,8905 L 12338,8860 L 12346,8812 L 12353,8761 L 12352,8741 L 12348,8720 L 12343,8697 L 12335,8673 L 12325,8647 L 12313,8620 L 12282,8561 L 12243,8496 L 12194,8424 L 12137,8347 L 12071,8263 L 12052,8247 L 12033,8231 L 12013,8216 L 11992,8202 L 11970,8190 L 11948,8178 L 11924,8168 L 11900,8158 L 11849,8143 L 11795,8132 L 11738,8125 L 11677,8123 L 11618,8126 L 11591,8129 L 11567,8133 L 11544,8138 L 11523,8145 L 11505,8153 L 11488,8162 L 11473,8172 L 11460,8183 L 11449,8196 L 11441,8210 L 11434,8225 L 11429,8241 L 11426,8259 L 11425,8278 L 11425,8289 L 11427,8300 L 11429,8311 L 11432,8322 L 11437,8332 L 11442,8342 L 11448,8351 L 11455,8361 L 11463,8370 L 11472,8378 L 11482,8387 L 11493,8395 L 11505,8402 L 11518,8410 L 11547,8424 L 11677,8681 L 11611,8822 L 11515,8990 L 11389,9185 L 11233,9407 L 10833,9931 L 10314,10564 L 10278,10572 L 10244,10583 L 10213,10596 L 10183,10611 L 10156,10629 L 10132,10649 L 10109,10671 L 10089,10696 L 10072,10722 L 10057,10752 L 10044,10783 L 10033,10817 L 10025,10853 L 10019,10892 L 10015,10933 L 10014,10976 L 10017,11053 L 10021,11088 L 10026,11120 L 10033,11149 L 10041,11176 L 10051,11201 L 10062,11223 L 10075,11242 L 10089,11258 L 10105,11273 L 10122,11284 L 10141,11293 L 10162,11299 L 10183,11303 L 10207,11305 L 10218,11304 L 10232,11301 L 10273,11291 L 10402,11251 L 10848,11089 L 11252,10968 L 11410,10911 L 11540,10856 L 11641,10804 L 11681,10779 L 11713,10754 L 11738,10730 L 11748,10719 L 11756,10707 L 11762,10696 L 11767,10685 L 11770,10674 L 11771,10663 L 11770,10648 L 11769,10632 L 11767,10617 L 11763,10602 L 11759,10587 L 11754,10572 L 11748,10557 L 11742,10543 L 11725,10514 L 11705,10485 L 11682,10456 L 11654,10428 L 11644,10406 L 11636,10383 L 11629,10359 L 11623,10332 L 11618,10305 L 11615,10275 L 11613,10245 L 11612,10213 L 11945,10925 L 11988,11023 L 12032,11107 L 12055,11145 L 12079,11179 L 12103,11210 L 12127,11237 L 12152,11262 L 12177,11283 L 12203,11301 L 12229,11315 L 12256,11327 L 12283,11335 L 12311,11340 L 12339,11341 L 12364,11340 L 12387,11336 L 12410,11330 L 12431,11321 L 12451,11310 L 12470,11297 L 12487,11280 L 12503,11262 L 12518,11241 L 12532,11217 L 12544,11191 L 12555,11162 L 12565,11131 L 12573,11097 L 12586,11023 L 12582,10919 L 12569,10819 L 12546,10722 L 12515,10629 L 12475,10538 L 12426,10451 L 12367,10368 L 12300,10288 L 12197,10207 L 12100,10138 L 12010,10079 L 11926,10031 L 11848,9994 L 11812,9979 L 11777,9967 L 11744,9958 L 11712,9952 L 11683,9948 L 11654,9946 L 11633,9947 L 11614,9948 L 11595,9951 L 11578,9954 L 11563,9958 L 11548,9964 L 11535,9970 L 11524,9977 L 11514,9986 L 11505,9995 L 11497,10005 L 11491,10017 L 11486,10029 L 11483,10042 L 11481,10057 L 11480,10072 L 11480,10086 L 11481,10101 L 11484,10132 L 11489,10164 L 11494,10198 L 11415,10456 L 11353,10488 L 11287,10516 L 11215,10542 L 11139,10566 L 11058,10586 L 10973,10604 L 10882,10618 L 10788,10630 z M 9064,10058 L 9279,9683 L 9279,9918 L 9064,10058 z M 9255,11098 L 9181,11054 L 9113,11010 L 9050,10966 L 8994,10920 L 8944,10874 L 8899,10828 L 8861,10780 L 8829,10732 L 8939,10642 L 9048,10546 L 9156,10445 L 9265,10339 L 9255,11098 z M 9673,9149 L 9771,9100 L 9857,9051 L 9929,9003 L 9960,8979 L 9988,8955 L 10013,8931 L 10034,8907 L 10052,8883 L 10067,8859 L 10079,8835 L 10087,8812 L 10092,8788 L 10093,8765 L 10092,8743 L 10089,8722 L 10083,8702 L 10075,8681 L 10064,8661 L 10051,8642 L 10036,8623 L 10018,8604 L 9998,8586 L 9975,8568 L 9950,8551 L 9923,8534 L 9861,8501 L 9789,8470 L 9842,8247 L 9855,8180 L 9859,8157 L 9859,8148 L 9860,8142 L 9859,8126 L 9855,8109 L 9849,8091 L 9840,8072 L 9829,8053 L 9816,8033 L 9800,8012 L 9781,7990 L 9737,7944 L 9683,7894 L 9619,7842 L 9545,7786 L 9512,7763 L 9481,7743 L 9452,7726 L 9424,7712 L 9398,7701 L 9374,7693 L 9362,7690 L 9351,7689 L 9340,7687 L 9330,7687 L 9230,7710 L 9190,7721 L 9158,7733 L 9144,7738 L 9133,7744 L 9123,7749 L 9115,7755 L 9109,7760 L 9106,7763 L 9104,7766 L 9103,7768 L 9101,7771 L 9101,7774 L 9101,7776 L 9101,7789 L 9103,7802 L 9107,7816 L 9112,7831 L 9118,7847 L 9126,7864 L 9145,7899 L 9170,7938 L 9201,7979 L 9237,8023 L 9279,8071 L 9279,8671 L 8581,8994 L 8555,8986 L 8529,8978 L 8504,8972 L 8480,8967 L 8455,8963 L 8431,8960 L 8407,8958 L 8384,8958 L 8374,8958 L 8364,8959 L 8355,8960 L 8347,8962 L 8339,8964 L 8333,8967 L 8326,8970 L 8321,8974 L 8316,8978 L 8312,8983 L 8308,8988 L 8305,8994 L 8303,9000 L 8302,9007 L 8301,9015 L 8300,9023 L 8301,9034 L 8303,9045 L 8306,9057 L 8311,9069 L 8317,9081 L 8324,9093 L 8332,9106 L 8342,9118 L 8366,9145 L 8395,9171 L 8429,9199 L 8469,9228 L 8529,9265 L 8586,9298 L 8641,9325 L 8693,9348 L 8742,9366 L 8788,9378 L 8810,9382 L 8831,9386 L 8851,9388 L 8871,9388 L 8897,9387 L 8928,9385 L 8962,9380 L 9000,9374 L 9087,9356 L 9190,9331 L 9056,9555 L 8915,9778 L 8613,10227 L 8542,10280 L 8481,10326 L 8432,10366 L 8394,10399 L 8386,10409 L 8379,10420 L 8373,10432 L 8367,10445 L 8361,10459 L 8356,10474 L 8348,10508 L 8341,10547 L 8337,10590 L 8334,10638 L 8333,10691 L 8341,10753 L 8346,10780 L 8353,10806 L 8360,10829 L 8369,10851 L 8378,10870 L 8389,10888 L 8401,10903 L 8413,10916 L 8427,10928 L 8441,10937 L 8457,10944 L 8474,10949 L 8491,10952 L 8510,10953 L 8514,10953 L 8518,10953 L 8527,10950 L 8537,10947 L 8549,10941 L 8577,10926 L 8610,10905 L 8648,10878 L 8692,10845 L 8796,10761 L 8887,10973 L 8980,11173 L 9076,11361 L 9176,11538 L 9186,11592 L 9193,11616 L 9200,11639 L 9209,11659 L 9219,11678 L 9229,11695 L 9241,11710 L 9253,11724 L 9267,11735 L 9281,11745 L 9297,11753 L 9313,11760 L 9330,11764 L 9349,11767 L 9368,11768 L 9373,11768 L 9378,11767 L 9388,11764 L 9399,11760 L 9410,11754 L 9421,11747 L 9432,11737 L 9444,11726 L 9455,11714 L 9480,11683 L 9505,11646 L 9532,11603 L 9559,11552 L 9576,11514 L 9590,11477 L 9602,11442 L 9612,11407 L 9620,11374 L 9626,11341 L 9629,11310 L 9630,11280 L 9606,10062 L 9724,9940 L 9829,9813 L 9921,9682 L 10000,9547 L 10067,9408 L 10120,9265 L 10161,9117 L 10188,8966 L 10137,9046 L 10080,9127 L 10019,9208 L 9953,9290 L 9806,9455 L 9640,9622 L 9673,9149 z "
               id="path2622" />
          </g>
          <g
             id="g2624" />
        </g>
      </g>
      <g
         id="g2626">
        <desc
           id="desc2628">Drawing</desc>
        <g
           id="g2630">
          <g
             style="fill:#000000;stroke:none"
             id="g2632">
            <path
               d="M 10469,15649 L 10502,15595 L 10535,15538 L 10568,15478 L 10601,15414 L 10796,15533 L 10882,15589 L 10960,15643 L 10987,15664 L 11012,15682 L 11037,15698 L 11060,15710 L 11083,15720 L 11093,15724 L 11104,15727 L 11114,15729 L 11124,15731 L 11134,15732 L 11143,15732 L 11163,15732 L 11181,15729 L 11199,15726 L 11215,15720 L 11230,15714 L 11243,15705 L 11255,15696 L 11266,15685 L 11276,15672 L 11284,15658 L 11291,15642 L 11297,15625 L 11302,15606 L 11305,15586 L 11307,15564 L 11307,15541 L 11307,15519 L 11305,15497 L 11301,15476 L 11297,15455 L 11291,15434 L 11284,15413 L 11275,15393 L 11265,15373 L 11254,15354 L 11241,15335 L 11228,15316 L 11212,15297 L 11178,15261 L 11139,15227 L 11114,15216 L 11089,15206 L 11063,15198 L 11036,15192 L 11009,15187 L 10981,15183 L 10952,15181 L 10924,15180 L 10878,15181 L 10825,15183 L 10765,15188 L 10698,15194 L 10783,14979 L 10971,14938 L 11142,14906 L 11296,14881 L 11433,14866 L 11433,16000 L 11362,15998 L 11288,15994 L 11214,15986 L 11138,15974 L 11062,15960 L 10984,15942 L 10905,15921 L 10824,15897 L 10771,15871 L 10720,15844 L 10672,15816 L 10626,15785 L 10583,15754 L 10542,15720 L 10504,15685 L 10469,15649 z M 9775,15334 L 9779,15323 L 9784,15311 L 9790,15301 L 9797,15292 L 9804,15283 L 9813,15275 L 9822,15268 L 9833,15261 L 9844,15255 L 9856,15250 L 9869,15246 L 9883,15243 L 9898,15240 L 9914,15238 L 9949,15237 L 9959,15236 L 9971,15234 L 10002,15228 L 10042,15217 L 10092,15203 L 10217,15160 L 10380,15101 L 10340,15174 L 10298,15246 L 10254,15315 L 10209,15381 L 10161,15446 L 10111,15508 L 10059,15567 L 10006,15625 L 9970,15595 L 9936,15563 L 9905,15529 L 9875,15494 L 9847,15457 L 9821,15418 L 9797,15377 L 9775,15334 z M 10422,14177 L 10722,13980 L 10698,14102 L 10422,14177 z M 11040,14004 L 11088,13840 L 11177,13789 L 11219,13768 L 11258,13750 L 11296,13734 L 11331,13721 L 11365,13711 L 11397,13704 L 11528,13676 L 11632,13649 L 11675,13635 L 11711,13622 L 11740,13609 L 11752,13603 L 11762,13596 L 11888,13765 L 11040,14004 z M 10885,14646 L 10970,14327 L 11364,14228 L 11367,14247 L 11369,14255 L 11372,14264 L 11375,14272 L 11378,14280 L 11382,14288 L 11386,14295 L 11391,14303 L 11396,14309 L 11401,14316 L 11407,14323 L 11419,14335 L 11433,14346 L 11433,14533 L 10885,14646 z M 10623,14449 L 10601,14522 L 10579,14591 L 10555,14658 L 10530,14721 L 10372,14777 L 10214,14838 L 10056,14903 L 9897,14973 L 9840,15001 L 9814,15016 L 9790,15032 L 9769,15048 L 9749,15065 L 9730,15082 L 9714,15100 L 9700,15118 L 9687,15137 L 9677,15157 L 9668,15177 L 9662,15198 L 9657,15219 L 9654,15241 L 9653,15264 L 9654,15349 L 9658,15429 L 9665,15506 L 9674,15578 L 9686,15646 L 9701,15710 L 9718,15770 L 9738,15826 L 9729,15844 L 9721,15862 L 9715,15878 L 9710,15893 L 9706,15907 L 9703,15920 L 9702,15932 L 9701,15943 L 9702,15956 L 9703,15968 L 9706,15979 L 9709,15989 L 9714,15998 L 9719,16007 L 9726,16014 L 9733,16021 L 9742,16027 L 9752,16032 L 9762,16037 L 9774,16040 L 9787,16043 L 9801,16045 L 9816,16046 L 9831,16047 L 9855,16046 L 9879,16042 L 9906,16037 L 9933,16029 L 9963,16019 L 9994,16007 L 10027,15992 L 10061,15976 L 10174,15907 L 10226,15872 L 10275,15837 L 10320,15801 L 10362,15764 L 10401,15727 L 10436,15690 L 10510,15826 L 10596,15957 L 10694,16082 L 10804,16202 L 10926,16317 L 11060,16427 L 11206,16532 L 11364,16632 L 11367,16645 L 11370,16658 L 11374,16670 L 11379,16681 L 11384,16691 L 11390,16701 L 11397,16709 L 11405,16717 L 11414,16723 L 11423,16729 L 11433,16734 L 11444,16738 L 11455,16741 L 11468,16743 L 11481,16745 L 11494,16745 L 11513,16744 L 11530,16743 L 11548,16739 L 11565,16735 L 11582,16729 L 11598,16722 L 11615,16714 L 11631,16704 L 11646,16693 L 11662,16681 L 11677,16667 L 11692,16652 L 11720,16619 L 11748,16581 L 11774,16528 L 11797,16475 L 11816,16419 L 11832,16362 L 11844,16303 L 11853,16242 L 11858,16180 L 11860,16116 L 11856,15771 L 11845,15577 L 11838,15352 L 11831,14810 L 12254,14800 L 12329,14796 L 12395,14787 L 12424,14781 L 12450,14774 L 12474,14766 L 12496,14757 L 12515,14747 L 12531,14736 L 12545,14723 L 12556,14710 L 12565,14695 L 12569,14688 L 12571,14680 L 12575,14663 L 12577,14646 L 12576,14631 L 12574,14616 L 12571,14601 L 12567,14586 L 12562,14572 L 12556,14557 L 12549,14543 L 12540,14530 L 12531,14516 L 12520,14502 L 12508,14489 L 12495,14476 L 12466,14450 L 12432,14425 L 12393,14406 L 12356,14389 L 12321,14374 L 12288,14362 L 12256,14353 L 12227,14347 L 12200,14343 L 12174,14341 L 12158,14342 L 12143,14343 L 12128,14345 L 12113,14348 L 12099,14351 L 12085,14356 L 12071,14361 L 12058,14367 L 12045,14374 L 12032,14382 L 12020,14390 L 12008,14399 L 11996,14410 L 11985,14420 L 11963,14445 L 11827,14453 L 11827,14435 L 11825,14417 L 11822,14399 L 11818,14381 L 11813,14362 L 11806,14344 L 11799,14326 L 11790,14307 L 11769,14270 L 11743,14233 L 11712,14196 L 11677,14159 L 11789,14132 L 11896,14109 L 11998,14089 L 12095,14074 L 12156,14066 L 12184,14060 L 12209,14054 L 12233,14046 L 12254,14038 L 12274,14028 L 12291,14018 L 12307,14006 L 12320,13993 L 12331,13980 L 12341,13965 L 12348,13950 L 12353,13933 L 12356,13915 L 12357,13897 L 12355,13871 L 12351,13846 L 12343,13823 L 12331,13801 L 12317,13780 L 12300,13760 L 12279,13742 L 12255,13725 L 12228,13709 L 12198,13695 L 12164,13681 L 12127,13669 L 12045,13649 L 11949,13633 L 11906,13599 L 11861,13565 L 11814,13533 L 11766,13503 L 11757,13487 L 11747,13472 L 11736,13458 L 11725,13445 L 11712,13433 L 11699,13423 L 11685,13413 L 11671,13404 L 11655,13396 L 11638,13390 L 11621,13384 L 11603,13379 L 11584,13376 L 11565,13373 L 11544,13372 L 11523,13371 L 11495,13372 L 11463,13374 L 11385,13384 L 11289,13400 L 11176,13422 L 11190,13334 L 11302,13298 L 11414,13265 L 11525,13235 L 11636,13207 L 11683,13190 L 11724,13170 L 11742,13160 L 11758,13150 L 11773,13139 L 11786,13127 L 11798,13115 L 11809,13103 L 11817,13090 L 11824,13077 L 11830,13063 L 11834,13049 L 11836,13035 L 11837,13020 L 11837,13012 L 11836,13003 L 11834,12995 L 11832,12987 L 11829,12979 L 11825,12971 L 11821,12963 L 11816,12955 L 11810,12947 L 11804,12940 L 11789,12924 L 11772,12909 L 11752,12894 L 11722,12875 L 11692,12858 L 11660,12845 L 11628,12833 L 11595,12824 L 11561,12818 L 11526,12814 L 11490,12813 L 11481,12814 L 11471,12815 L 11459,12817 L 11445,12820 L 11412,12829 L 11373,12841 L 11406,12757 L 11429,12688 L 11437,12659 L 11443,12634 L 11446,12612 L 11447,12602 L 11448,12594 L 11447,12591 L 11447,12588 L 11446,12585 L 11445,12582 L 11443,12576 L 11439,12570 L 11433,12563 L 11427,12556 L 11420,12549 L 11411,12542 L 11391,12526 L 11366,12509 L 11337,12491 L 11303,12472 L 11194,12420 L 11146,12400 L 11103,12384 L 11064,12371 L 11030,12362 L 11000,12356 L 10987,12355 L 10975,12354 L 10926,12367 L 10884,12381 L 10866,12389 L 10849,12397 L 10834,12406 L 10820,12415 L 10808,12425 L 10798,12435 L 10789,12446 L 10782,12457 L 10776,12468 L 10772,12480 L 10770,12492 L 10769,12504 L 10770,12513 L 10772,12522 L 10775,12531 L 10779,12541 L 10785,12551 L 10792,12560 L 10800,12570 L 10810,12581 L 10833,12602 L 10861,12623 L 10894,12646 L 10932,12669 L 10891,12977 L 10797,13008 L 10703,13034 L 10609,13055 L 10516,13071 L 10412,13057 L 10373,13054 L 10357,13053 L 10343,13052 L 10333,13053 L 10324,13054 L 10315,13055 L 10307,13057 L 10300,13060 L 10294,13064 L 10288,13068 L 10282,13072 L 10278,13078 L 10273,13084 L 10270,13090 L 10267,13097 L 10265,13105 L 10263,13113 L 10262,13122 L 10262,13132 L 10263,13145 L 10265,13157 L 10268,13169 L 10273,13181 L 10280,13193 L 10288,13204 L 10297,13215 L 10308,13226 L 10320,13237 L 10333,13247 L 10348,13256 L 10365,13266 L 10402,13284 L 10445,13300 L 10554,13336 L 10648,13361 L 10689,13370 L 10726,13376 L 10759,13380 L 10788,13381 L 10558,13540 L 10488,13558 L 10427,13580 L 10400,13592 L 10375,13605 L 10352,13619 L 10332,13633 L 10314,13649 L 10298,13666 L 10285,13683 L 10274,13701 L 10266,13720 L 10259,13741 L 10255,13761 L 10254,13783 L 10254,13799 L 10255,13813 L 10257,13827 L 10260,13839 L 10263,13850 L 10267,13861 L 10272,13870 L 10278,13878 L 10284,13886 L 10292,13892 L 10300,13897 L 10309,13902 L 10318,13905 L 10328,13907 L 10339,13909 L 10351,13909 L 10362,13909 L 10375,13908 L 10408,13903 L 10448,13895 L 10496,13884 L 10616,13852 L 10769,13807 L 10577,13944 L 10397,14064 L 10228,14169 L 10071,14256 L 9979,14274 L 9941,14283 L 9908,14292 L 9881,14301 L 9869,14306 L 9859,14311 L 9850,14316 L 9843,14321 L 9836,14326 L 9831,14332 L 9826,14339 L 9820,14348 L 9811,14365 L 9803,14384 L 9796,14405 L 9791,14426 L 9788,14450 L 9785,14474 L 9785,14500 L 9785,14518 L 9788,14535 L 9791,14551 L 9796,14566 L 9803,14579 L 9810,14592 L 9820,14603 L 9830,14613 L 9843,14622 L 9856,14629 L 9871,14636 L 9887,14641 L 9905,14645 L 9925,14648 L 9945,14650 L 9967,14650 L 9981,14649 L 9998,14647 L 10044,14638 L 10104,14622 L 10178,14600 L 10372,14537 L 10623,14449 z M 8853,13489 L 9010,13471 L 9157,13449 L 9295,13422 L 9424,13390 L 9470,13398 L 9509,13404 L 9540,13407 L 9554,13408 L 9565,13408 L 9589,13407 L 9612,13404 L 9633,13398 L 9653,13390 L 9671,13380 L 9687,13368 L 9702,13353 L 9716,13337 L 9727,13318 L 9738,13297 L 9746,13273 L 9754,13248 L 9759,13220 L 9763,13190 L 9766,13158 L 9766,13123 L 9765,13093 L 9763,13063 L 9758,13034 L 9752,13005 L 9743,12978 L 9733,12951 L 9721,12925 L 9708,12899 L 9692,12875 L 9675,12851 L 9655,12828 L 9634,12806 L 9611,12785 L 9586,12764 L 9560,12744 L 9531,12725 L 9491,12703 L 9451,12683 L 9412,12666 L 9374,12652 L 9336,12640 L 9299,12631 L 9262,12625 L 9227,12622 L 9214,12622 L 9200,12623 L 9171,12628 L 9140,12636 L 9107,12646 L 9071,12660 L 9033,12677 L 8993,12697 L 8950,12720 L 8920,12740 L 8894,12761 L 8871,12782 L 8862,12793 L 8853,12804 L 8845,12814 L 8839,12826 L 8833,12837 L 8828,12848 L 8825,12859 L 8822,12871 L 8821,12882 L 8820,12894 L 8821,12906 L 8823,12918 L 8826,12928 L 8830,12938 L 8836,12948 L 8842,12956 L 8850,12964 L 8860,12970 L 8870,12976 L 8882,12981 L 8895,12986 L 8909,12989 L 8925,12992 L 8941,12994 L 8979,12996 L 9007,13009 L 9035,13024 L 9062,13041 L 9089,13060 L 9116,13082 L 9142,13106 L 9168,13132 L 9194,13160 L 9163,13200 L 9129,13240 L 9091,13281 L 9050,13322 L 9006,13363 L 8958,13405 L 8853,13489 z M 8773,14425 L 8585,15190 L 8572,15261 L 8561,15342 L 8544,15533 L 8533,15762 L 8530,16028 L 8531,16063 L 8535,16101 L 8541,16142 L 8549,16185 L 8560,16232 L 8574,16281 L 8609,16388 L 8627,16420 L 8645,16448 L 8664,16471 L 8673,16481 L 8683,16490 L 8692,16498 L 8702,16505 L 8712,16511 L 8722,16516 L 8732,16519 L 8742,16522 L 8753,16524 L 8763,16524 L 8780,16523 L 8795,16520 L 8810,16516 L 8824,16509 L 8837,16500 L 8850,16490 L 8862,16478 L 8873,16463 L 8883,16447 L 8893,16429 L 8902,16409 L 8910,16387 L 8925,16338 L 8936,16281 L 9082,16048 L 9213,15803 L 9331,15545 L 9434,15274 L 9524,14989 L 9600,14692 L 9662,14382 L 9710,14060 L 9627,14267 L 9534,14468 L 9433,14664 L 9323,14855 L 9204,15041 L 9075,15220 L 8938,15395 L 8792,15564 L 8799,15480 L 8814,15387 L 8837,15284 L 8868,15170 L 8953,14914 L 9068,14618 L 9126,14467 L 9167,14341 L 9181,14288 L 9191,14242 L 9198,14201 L 9199,14183 L 9200,14167 L 9198,14145 L 9193,14123 L 9184,14100 L 9173,14077 L 9157,14053 L 9139,14029 L 9117,14004 L 9092,13978 L 9031,13926 L 8957,13871 L 8869,13814 L 8768,13755 L 8767,13715 L 8765,13680 L 8761,13650 L 8758,13637 L 8755,13626 L 8752,13615 L 8748,13607 L 8744,13599 L 8739,13593 L 8737,13591 L 8734,13588 L 8731,13586 L 8729,13585 L 8726,13584 L 8723,13583 L 8720,13582 L 8717,13582 L 8713,13582 L 8708,13583 L 8704,13584 L 8700,13586 L 8691,13590 L 8683,13596 L 8674,13604 L 8665,13614 L 8656,13625 L 8646,13639 L 8627,13670 L 8608,13709 L 8587,13755 L 8567,13807 L 8558,13835 L 8551,13866 L 8544,13900 L 8539,13938 L 8535,13980 L 8532,14025 L 8530,14126 L 8531,14149 L 8534,14171 L 8538,14192 L 8545,14213 L 8553,14234 L 8564,14254 L 8576,14273 L 8590,14292 L 8607,14310 L 8625,14328 L 8645,14346 L 8667,14363 L 8716,14395 L 8773,14425 z "
               id="path2634" />
          </g>
          <g
             id="g2636" />
        </g>
      </g>
      <g
         id="g2638">
        <desc
           id="desc2640">Drawing</desc>
        <g
           id="g2642">
          <g
             style="fill:#000000;stroke:none"
             id="g2644">
            <path
               d="M 10942,19064 L 11008,19062 L 11074,19057 L 11141,19049 L 11208,19038 L 11276,19024 L 11344,19006 L 11412,18986 L 11482,18962 L 11467,18998 L 11449,19035 L 11428,19073 L 11404,19111 L 11376,19150 L 11346,19190 L 11312,19230 L 11275,19271 L 11239,19297 L 11203,19321 L 11167,19344 L 11129,19366 L 11092,19385 L 11053,19403 L 11014,19420 L 10975,19435 L 10982,19313 L 10984,19276 L 10984,19256 L 10984,19238 L 10982,19218 L 10978,19197 L 10974,19173 L 10968,19149 L 10961,19122 L 10942,19064 z M 10952,19969 L 10960,19673 L 10997,19681 L 11032,19688 L 11048,19690 L 11063,19691 L 11078,19692 L 11092,19693 L 11103,19692 L 11118,19690 L 11164,19683 L 11317,19654 L 11273,19707 L 11228,19755 L 11182,19800 L 11137,19841 L 11091,19879 L 11045,19913 L 10998,19943 L 10952,19969 z M 10952,20807 L 10948,20264 L 10973,20271 L 10999,20278 L 11025,20283 L 11050,20288 L 11076,20291 L 11102,20294 L 11127,20296 L 11153,20296 L 11166,20296 L 11183,20294 L 11225,20286 L 11346,20257 L 11517,20207 L 11738,20137 L 11717,20196 L 11690,20256 L 11657,20316 L 11617,20377 L 11570,20439 L 11517,20502 L 11458,20565 L 11392,20629 L 11342,20657 L 11291,20684 L 11238,20709 L 11183,20732 L 11127,20753 L 11070,20773 L 11012,20791 L 10952,20807 z M 10745,17949 L 10880,17948 L 11009,17944 L 11131,17937 L 11246,17926 L 11322,17945 L 11387,17958 L 11415,17962 L 11440,17965 L 11462,17967 L 11482,17967 L 11511,17967 L 11539,17964 L 11565,17959 L 11590,17953 L 11612,17945 L 11632,17935 L 11651,17923 L 11667,17909 L 11682,17894 L 11694,17876 L 11705,17857 L 11714,17836 L 11721,17813 L 11726,17789 L 11728,17762 L 11729,17734 L 11726,17661 L 11722,17627 L 11716,17593 L 11708,17561 L 11698,17530 L 11687,17500 L 11674,17472 L 11660,17444 L 11643,17418 L 11625,17393 L 11605,17369 L 11584,17346 L 11560,17324 L 11535,17304 L 11509,17285 L 11496,17277 L 11482,17270 L 11453,17258 L 11420,17247 L 11383,17239 L 11344,17232 L 11300,17228 L 11254,17225 L 11204,17224 L 11112,17228 L 11032,17236 L 10965,17247 L 10936,17254 L 10910,17262 L 10887,17271 L 10867,17281 L 10850,17292 L 10836,17304 L 10830,17310 L 10825,17316 L 10821,17323 L 10818,17330 L 10815,17337 L 10813,17344 L 10812,17352 L 10812,17360 L 10812,17370 L 10814,17379 L 10816,17388 L 10820,17397 L 10825,17406 L 10831,17414 L 10838,17422 L 10846,17430 L 10855,17437 L 10865,17444 L 10876,17451 L 10888,17458 L 10916,17470 L 10948,17482 L 10972,17501 L 10998,17523 L 11050,17573 L 11105,17631 L 11163,17697 L 11128,17726 L 11087,17756 L 11043,17787 L 10993,17818 L 10879,17882 L 10745,17949 z M 10339,18016 L 10336,18016 L 10333,18016 L 10331,18017 L 10329,18018 L 10326,18019 L 10324,18021 L 10322,18022 L 10320,18024 L 10316,18029 L 10313,18035 L 10309,18042 L 10307,18051 L 10304,18060 L 10302,18070 L 10299,18095 L 10297,18123 L 10296,18156 L 10296,18169 L 10294,18183 L 10288,18216 L 10279,18255 L 10265,18299 L 10227,18406 L 10174,18535 L 10153,18567 L 10135,18600 L 10120,18633 L 10107,18667 L 10098,18702 L 10091,18738 L 10086,18774 L 10085,18812 L 10095,18898 L 10111,18973 L 10120,19007 L 10131,19037 L 10143,19064 L 10156,19089 L 10170,19111 L 10186,19129 L 10203,19145 L 10221,19158 L 10240,19168 L 10260,19176 L 10282,19180 L 10305,19181 L 10317,19181 L 10330,19179 L 10342,19177 L 10354,19173 L 10366,19168 L 10377,19162 L 10399,19147 L 10420,19128 L 10440,19105 L 10459,19077 L 10477,19045 L 10494,19009 L 10509,18969 L 10538,18875 L 10562,18765 L 10582,18637 L 10771,18544 L 10957,18461 L 11140,18388 L 11319,18325 L 11496,18272 L 11669,18230 L 11839,18197 L 12006,18174 L 11988,18203 L 11968,18231 L 11945,18260 L 11919,18288 L 11891,18316 L 11859,18343 L 11788,18398 L 11705,18452 L 11610,18506 L 11504,18559 L 11387,18611 L 11543,18657 L 11425,18747 L 11098,18836 L 10960,18878 L 10839,18919 L 10779,18866 L 10753,18845 L 10729,18828 L 10708,18815 L 10699,18810 L 10690,18805 L 10682,18802 L 10674,18799 L 10668,18798 L 10661,18798 L 10653,18798 L 10645,18798 L 10638,18799 L 10631,18801 L 10624,18803 L 10619,18805 L 10613,18808 L 10609,18812 L 10604,18815 L 10601,18819 L 10598,18824 L 10595,18829 L 10593,18835 L 10592,18841 L 10591,18847 L 10591,18854 L 10591,18861 L 10592,18868 L 10594,18887 L 10605,18940 L 10622,19013 L 10647,19106 L 10540,20742 L 10518,20772 L 10499,20802 L 10483,20833 L 10470,20865 L 10459,20897 L 10452,20931 L 10448,20965 L 10446,21000 L 10448,21033 L 10452,21069 L 10460,21108 L 10471,21150 L 10484,21194 L 10501,21242 L 10544,21346 L 10552,21364 L 10562,21382 L 10572,21398 L 10582,21413 L 10593,21427 L 10605,21440 L 10618,21451 L 10631,21462 L 10645,21471 L 10659,21479 L 10674,21485 L 10690,21491 L 10706,21495 L 10723,21498 L 10741,21499 L 10759,21500 L 10779,21499 L 10797,21498 L 10814,21494 L 10830,21490 L 10846,21484 L 10860,21477 L 10873,21469 L 10885,21460 L 10895,21449 L 10905,21437 L 10914,21423 L 10922,21409 L 10928,21393 L 10934,21376 L 10938,21357 L 10942,21337 L 10956,21074 L 11011,21082 L 11058,21088 L 11098,21092 L 11115,21093 L 11130,21094 L 11138,21093 L 11147,21092 L 11172,21089 L 11246,21073 L 11490,21013 L 11795,20992 L 11912,20988 L 12006,20986 L 12045,20983 L 12063,20980 L 12080,20976 L 12095,20972 L 12109,20967 L 12121,20961 L 12132,20954 L 12142,20946 L 12151,20937 L 12158,20928 L 12164,20918 L 12168,20907 L 12172,20895 L 12174,20882 L 12174,20868 L 12174,20853 L 12172,20837 L 12169,20821 L 12164,20805 L 12158,20788 L 12151,20771 L 12143,20754 L 12134,20736 L 12110,20699 L 12082,20662 L 12049,20623 L 12010,20582 L 12040,20558 L 12070,20531 L 12099,20501 L 12128,20470 L 12156,20436 L 12183,20400 L 12209,20361 L 12235,20320 L 12268,20301 L 12296,20281 L 12309,20271 L 12321,20261 L 12331,20251 L 12340,20240 L 12349,20230 L 12356,20219 L 12362,20208 L 12367,20197 L 12370,20186 L 12373,20175 L 12375,20163 L 12375,20152 L 12375,20137 L 12372,20122 L 12369,20107 L 12363,20092 L 12357,20077 L 12348,20062 L 12339,20047 L 12328,20032 L 12315,20017 L 12301,20001 L 12268,19970 L 12229,19939 L 12184,19908 L 12143,19881 L 12103,19857 L 12066,19837 L 12030,19820 L 11997,19807 L 11965,19798 L 11950,19795 L 11936,19792 L 11921,19791 L 11908,19790 L 11898,19791 L 11887,19792 L 11876,19795 L 11863,19798 L 11836,19807 L 11806,19820 L 11772,19837 L 11735,19857 L 11650,19908 L 11419,19964 L 11226,20005 L 11071,20032 L 11009,20040 L 10956,20044 L 11028,20007 L 11105,19963 L 11276,19855 L 11468,19721 L 11683,19561 L 11734,19552 L 11779,19539 L 11798,19532 L 11816,19524 L 11833,19515 L 11847,19506 L 11860,19496 L 11871,19485 L 11881,19474 L 11888,19462 L 11895,19449 L 11899,19436 L 11901,19421 L 11902,19407 L 11902,19394 L 11900,19382 L 11897,19371 L 11892,19359 L 11887,19347 L 11880,19336 L 11872,19324 L 11863,19313 L 11852,19302 L 11841,19291 L 11828,19280 L 11813,19270 L 11781,19249 L 11744,19228 L 11916,19069 L 11946,19055 L 11960,19047 L 11972,19039 L 11983,19030 L 11994,19022 L 12003,19013 L 12011,19003 L 12019,18994 L 12025,18984 L 12030,18974 L 12035,18964 L 12038,18953 L 12041,18942 L 12042,18931 L 12043,18919 L 12042,18905 L 12039,18890 L 12035,18875 L 12030,18860 L 12023,18845 L 12014,18829 L 12004,18814 L 11992,18799 L 11979,18783 L 11964,18767 L 11930,18736 L 11889,18704 L 11841,18671 L 11907,18658 L 11974,18641 L 12043,18618 L 12114,18591 L 12186,18558 L 12260,18521 L 12336,18479 L 12414,18432 L 12462,18421 L 12504,18407 L 12522,18400 L 12539,18392 L 12554,18384 L 12568,18376 L 12580,18367 L 12590,18357 L 12599,18348 L 12606,18337 L 12612,18327 L 12616,18315 L 12618,18304 L 12619,18292 L 12618,18276 L 12617,18261 L 12614,18245 L 12610,18230 L 12605,18214 L 12599,18198 L 12592,18182 L 12584,18166 L 12564,18134 L 12540,18101 L 12512,18068 L 12479,18034 L 12440,17997 L 12403,17964 L 12369,17937 L 12336,17914 L 12305,17897 L 12291,17890 L 12277,17884 L 12263,17880 L 12250,17877 L 12237,17875 L 12225,17874 L 12202,17874 L 12178,17876 L 12155,17878 L 12131,17881 L 12107,17885 L 12083,17890 L 12034,17902 L 11707,17977 L 11354,18074 L 10976,18192 L 10572,18333 L 10540,18259 L 10508,18194 L 10478,18140 L 10448,18095 L 10433,18077 L 10419,18060 L 10405,18047 L 10391,18036 L 10378,18027 L 10364,18021 L 10358,18018 L 10351,18017 L 10345,18016 L 10339,18016 z M 9011,19823 L 9350,19482 L 9472,19435 L 9442,19562 L 9426,19620 L 9411,19673 L 9374,19670 L 9360,19669 L 9350,19669 L 9343,19669 L 9336,19670 L 9329,19672 L 9322,19674 L 9315,19677 L 9308,19681 L 9301,19685 L 9293,19690 L 9278,19702 L 9262,19716 L 9245,19734 L 9228,19754 L 9181,19772 L 9129,19789 L 9073,19807 L 9011,19823 z M 8984,19748 L 8993,19551 L 9143,19557 L 8984,19748 z M 8899,19177 L 8924,19173 L 8951,19166 L 8980,19158 L 9011,19148 L 9080,19124 L 9157,19092 L 9251,19055 L 9351,19020 L 9455,18985 L 9565,18952 L 9557,19017 L 9546,19084 L 9533,19153 L 9518,19224 L 9505,19221 L 9491,19219 L 9461,19216 L 9427,19215 L 9391,19214 L 9375,19215 L 9357,19216 L 9319,19223 L 9275,19234 L 9228,19249 L 9175,19269 L 9117,19293 L 8989,19356 L 8971,19311 L 8950,19266 L 8926,19222 L 8899,19177 z M 8000,19397 L 8000,19404 L 8001,19411 L 8003,19418 L 8004,19424 L 8007,19429 L 8010,19434 L 8014,19439 L 8018,19443 L 8023,19446 L 8028,19449 L 8034,19452 L 8040,19454 L 8047,19455 L 8054,19457 L 8062,19457 L 8071,19458 L 8082,19457 L 8094,19456 L 8122,19450 L 8154,19441 L 8191,19429 L 8232,19412 L 8278,19392 L 8384,19341 L 8404,19329 L 8425,19314 L 8447,19296 L 8470,19276 L 8495,19252 L 8521,19225 L 8576,19163 L 8598,19197 L 8617,19229 L 8633,19261 L 8647,19292 L 8657,19322 L 8664,19351 L 8669,19379 L 8670,19393 L 8670,19407 L 8589,20432 L 8569,20753 L 8562,20948 L 8564,20986 L 8569,21027 L 8578,21070 L 8590,21116 L 8606,21163 L 8625,21212 L 8648,21264 L 8674,21317 L 8692,21348 L 8702,21362 L 8712,21375 L 8722,21387 L 8732,21398 L 8743,21407 L 8754,21416 L 8765,21424 L 8777,21431 L 8789,21436 L 8801,21441 L 8813,21444 L 8826,21447 L 8839,21449 L 8853,21449 L 8866,21448 L 8879,21446 L 8891,21442 L 8903,21437 L 8915,21430 L 8926,21421 L 8937,21411 L 8948,21399 L 8958,21386 L 8967,21371 L 8976,21354 L 8985,21336 L 9002,21295 L 9017,21248 L 9090,21163 L 9157,21075 L 9221,20984 L 9279,20891 L 9333,20794 L 9382,20694 L 9426,20591 L 9466,20485 L 9498,20527 L 9529,20564 L 9561,20596 L 9576,20609 L 9592,20622 L 9607,20632 L 9623,20642 L 9638,20649 L 9654,20656 L 9669,20661 L 9684,20664 L 9700,20667 L 9715,20667 L 9767,20665 L 9790,20663 L 9811,20659 L 9831,20655 L 9849,20649 L 9865,20643 L 9880,20635 L 9893,20627 L 9904,20617 L 9913,20607 L 9921,20596 L 9927,20583 L 9931,20570 L 9934,20555 L 9935,20540 L 9934,20494 L 9929,20446 L 9922,20396 L 9912,20343 L 9935,20194 L 9953,20023 L 9965,19831 L 9973,19618 L 9892,19806 L 9853,19887 L 9814,19960 L 9777,20023 L 9740,20078 L 9704,20123 L 9686,20143 L 9669,20160 L 9621,20128 L 9576,20101 L 9535,20077 L 9497,20058 L 9462,20043 L 9431,20033 L 9416,20029 L 9402,20026 L 9389,20025 L 9377,20024 L 9362,20025 L 9347,20026 L 9334,20027 L 9322,20030 L 9311,20033 L 9300,20037 L 9291,20041 L 9282,20046 L 9275,20052 L 9269,20059 L 9263,20066 L 9259,20074 L 9255,20083 L 9253,20092 L 9251,20103 L 9251,20113 L 9252,20134 L 9254,20156 L 9259,20180 L 9265,20205 L 9273,20232 L 9282,20260 L 9294,20289 L 9307,20320 L 9261,20371 L 9212,20421 L 9160,20469 L 9107,20516 L 9051,20561 L 8993,20605 L 8871,20690 L 8879,20571 L 8890,20429 L 8928,20077 L 9058,20038 L 9190,20001 L 9325,19967 L 9462,19936 L 9469,19949 L 9473,19955 L 9477,19961 L 9481,19965 L 9485,19970 L 9489,19974 L 9493,19978 L 9498,19981 L 9503,19984 L 9507,19986 L 9512,19988 L 9517,19990 L 9522,19991 L 9527,19991 L 9533,19992 L 9549,19991 L 9566,19989 L 9582,19985 L 9598,19980 L 9613,19974 L 9629,19966 L 9643,19957 L 9658,19946 L 9672,19934 L 9686,19920 L 9699,19905 L 9713,19889 L 9738,19852 L 9762,19809 L 9809,19673 L 9856,19513 L 9902,19329 L 9949,19120 L 9970,19097 L 9988,19073 L 10003,19051 L 10016,19030 L 10026,19010 L 10030,19001 L 10033,18991 L 10035,18982 L 10037,18973 L 10038,18965 L 10038,18956 L 10038,18946 L 10036,18936 L 10034,18925 L 10030,18915 L 10025,18904 L 10020,18892 L 10013,18881 L 10005,18869 L 9987,18845 L 9964,18819 L 9937,18793 L 9907,18765 L 9835,18716 L 9804,18696 L 9776,18680 L 9750,18668 L 9728,18659 L 9717,18656 L 9708,18653 L 9699,18652 L 9691,18652 L 9682,18652 L 9672,18653 L 9662,18655 L 9651,18658 L 9627,18666 L 9600,18677 L 9570,18691 L 9538,18708 L 9466,18751 L 8731,18970 L 9120,18361 L 9142,18375 L 9162,18388 L 9180,18402 L 9198,18416 L 9214,18430 L 9229,18445 L 9243,18459 L 9255,18475 L 9249,18486 L 9242,18498 L 9225,18521 L 9206,18543 L 9184,18565 L 9158,18586 L 9130,18607 L 9098,18627 L 9064,18647 L 9155,18646 L 9246,18640 L 9338,18631 L 9429,18619 L 9434,18623 L 9439,18627 L 9444,18630 L 9449,18634 L 9454,18637 L 9460,18639 L 9471,18644 L 9483,18647 L 9496,18650 L 9509,18651 L 9523,18652 L 9538,18651 L 9552,18650 L 9566,18647 L 9578,18644 L 9590,18640 L 9600,18635 L 9609,18629 L 9618,18622 L 9625,18613 L 9631,18604 L 9637,18594 L 9641,18584 L 9644,18572 L 9647,18559 L 9648,18545 L 9649,18530 L 9648,18505 L 9646,18481 L 9642,18457 L 9636,18433 L 9630,18410 L 9621,18388 L 9611,18366 L 9600,18344 L 9587,18323 L 9572,18302 L 9556,18282 L 9538,18263 L 9519,18243 L 9498,18225 L 9452,18188 L 9431,18179 L 9410,18172 L 9386,18165 L 9362,18160 L 9336,18156 L 9309,18153 L 9280,18151 L 9251,18150 L 9350,17963 L 9462,18052 L 9559,18135 L 9642,18213 L 9678,18250 L 9710,18286 L 9743,18318 L 9776,18346 L 9808,18369 L 9839,18388 L 9854,18396 L 9869,18403 L 9884,18409 L 9898,18414 L 9912,18417 L 9926,18420 L 9940,18422 L 9953,18422 L 9979,18421 L 10003,18419 L 10025,18416 L 10046,18411 L 10065,18405 L 10082,18397 L 10098,18388 L 10112,18378 L 10124,18366 L 10135,18353 L 10144,18338 L 10151,18322 L 10157,18305 L 10161,18286 L 10164,18266 L 10164,18245 L 10161,18162 L 10152,18085 L 10145,18050 L 10136,18016 L 10126,17984 L 10114,17954 L 10101,17925 L 10086,17899 L 10069,17874 L 10051,17851 L 10032,17830 L 10010,17810 L 9988,17792 L 9963,17776 L 9930,17761 L 9891,17748 L 9846,17735 L 9795,17724 L 9738,17714 L 9675,17705 L 9533,17691 L 9567,17627 L 9581,17599 L 9592,17573 L 9601,17551 L 9607,17531 L 9609,17522 L 9611,17514 L 9612,17507 L 9612,17500 L 9611,17490 L 9610,17480 L 9608,17470 L 9604,17460 L 9600,17449 L 9595,17438 L 9582,17415 L 9566,17391 L 9546,17366 L 9522,17339 L 9494,17312 L 9464,17291 L 9435,17273 L 9407,17258 L 9379,17246 L 9352,17236 L 9325,17229 L 9300,17225 L 9287,17224 L 9275,17224 L 9216,17237 L 9164,17251 L 9141,17259 L 9120,17268 L 9102,17277 L 9085,17287 L 9070,17297 L 9057,17308 L 9046,17319 L 9037,17330 L 9030,17343 L 9025,17355 L 9022,17369 L 9021,17383 L 9022,17389 L 9023,17396 L 9025,17403 L 9028,17410 L 9032,17418 L 9036,17426 L 9042,17434 L 9048,17443 L 9063,17461 L 9082,17481 L 9104,17501 L 9129,17523 L 9014,17793 L 8895,18049 L 8772,18291 L 8645,18517 L 8514,18730 L 8378,18928 L 8238,19111 L 8093,19281 L 8072,19299 L 8053,19316 L 8037,19332 L 8023,19347 L 8018,19354 L 8013,19361 L 8009,19367 L 8006,19374 L 8003,19380 L 8001,19386 L 8000,19391 L 8000,19397 z "
               id="path2646" />
          </g>
          <g
             id="g2648" />
        </g>
      </g>
    </g>
  </g>
</svg>
